<svg width="16" height="21" viewBox="0 0 16 21" fill="none" xmlns="http://www.w3.org/2000/svg">
<path d="M15.3828 10.0703C15.1875 9.60156 14.7188 9.28906 14.2109 9.28906H9.32812L12.8047 2.33594C13.0781 1.78906 12.9219 1.16406 12.4531 0.773438C12.2578 0.617188 11.9844 0.5 11.7109 0.5C11.3984 0.5 11.125 0.617188 10.8906 0.8125L0.890625 9.5625C0.5 9.91406 0.382812 10.4609 0.578125 10.9688C0.734375 11.4375 1.20312 11.75 1.75 11.75H6.59375L3.11719 18.7031C2.84375 19.25 3 19.875 3.46875 20.2656C3.70312 20.4219 3.97656 20.5 4.25 20.5C4.52344 20.5 4.83594 20.4219 5.07031 20.2266L15.0312 11.4766C15.4609 11.125 15.5781 10.5781 15.3828 10.0703ZM4.25 19.25L7.6875 12.2969C7.88281 11.9062 7.88281 11.4375 7.64844 11.0859C7.41406 10.6953 7.02344 10.5 6.59375 10.5H1.75L11.7109 1.75L8.23438 8.70312C8.03906 9.09375 8.03906 9.5625 8.27344 9.91406C8.50781 10.3047 8.89844 10.5391 9.32812 10.5391H14.2109L4.25 19.25Z" fill="#3A89FF;
"/>
</svg>
