<svg width="15" height="24" viewBox="0 0 15 24" fill="none" xmlns="http://www.w3.org/2000/svg">
<path d="M7.5 0C8.29688 0 9 0.703125 9 1.5V3.1875C9.04688 3.1875 9.14062 3.23438 9.1875 3.23438C9.70312 3.28125 11.1562 3.5625 11.7656 3.70312C12.5625 3.89062 13.0781 4.73438 12.8906 5.53125C12.6562 6.32812 11.8594 6.79688 11.0625 6.60938C10.5938 6.46875 9.28125 6.28125 8.76562 6.1875C7.26562 5.95312 5.95312 6.09375 5.0625 6.42188C4.21875 6.75 3.84375 7.21875 3.75 7.73438C3.65625 8.25 3.75 8.53125 3.84375 8.71875C3.9375 8.90625 4.07812 9.09375 4.45312 9.32812C5.20312 9.84375 6.375 10.1719 7.875 10.5938H8.01562C9.32812 10.9688 10.9688 11.4375 12.1875 12.2344C12.8438 12.6562 13.4531 13.2656 13.8281 14.0625C14.25 14.9062 14.2969 15.8438 14.1562 16.8281C13.8281 18.6094 12.5625 19.8281 11.0625 20.4375C10.4062 20.7188 9.70312 20.8594 9 20.9531V22.5C9 23.3438 8.29688 24 7.5 24C6.65625 24 6 23.3438 6 22.5V20.9062C5.95312 20.9062 5.95312 20.8594 5.90625 20.8594C4.78125 20.7188 2.90625 20.2031 1.64062 19.6406C0.84375 19.3125 0.515625 18.4219 0.84375 17.6719C1.17188 16.9219 2.0625 16.5469 2.8125 16.9219C3.79688 17.3438 5.4375 17.7656 6.375 17.9062C7.875 18.1406 9.09375 18 9.9375 17.6719C10.7344 17.3438 11.0625 16.875 11.2031 16.3125C11.2969 15.7969 11.2031 15.5156 11.1094 15.3281C11.0156 15.1406 10.875 14.9531 10.5 14.7188C9.75 14.2031 8.57812 13.875 7.07812 13.4531H6.9375C5.625 13.0781 3.98438 12.6094 2.76562 11.8125C2.10938 11.3906 1.5 10.7812 1.125 9.98438C0.703125 9.14062 0.65625 8.20312 0.796875 7.17188C1.17188 5.39062 2.48438 4.21875 3.98438 3.60938C4.59375 3.375 5.29688 3.23438 6 3.14062V1.5C6 0.703125 6.65625 0 7.5 0Z" fill="white" fill-opacity="0.3"/>
</svg>
