<svg width="16" height="16" viewBox="0 0 16 16" fill="none" xmlns="http://www.w3.org/2000/svg">
<path fill-rule="evenodd" clip-rule="evenodd" d="M14.8571 0.571429C14.8571 0.255714 15.1143 0 15.4286 0C15.7429 0 16 0.255714 16 0.571429V6.28571C16 6.6 15.7429 6.85714 15.4286 6.85714H9.71429C9.4 6.85714 9.14286 6.6 9.14286 6.28571C9.14286 5.97143 9.4 5.71429 9.71429 5.71429H13.8429C12.9036 3.31714 10.5889 1.71429 8 1.71429C4.91786 1.71429 2.31036 3.91786 1.80143 6.95214C1.75429 7.23104 1.51221 7.42857 1.23821 7.42857C1.20715 7.42857 1.17537 7.425 1.14359 7.42143L1.14357 7.42143C0.832142 7.36786 0.622142 7.075 0.674999 6.76071C1.275 3.17536 4.35714 0.571429 8 0.571429C11.0214 0.571429 13.7214 2.41857 14.8571 5.18929V0.571429ZM14.1671 9.04714C14.2189 8.73593 14.5119 8.52279 14.825 8.57857C15.1679 8.63214 15.3786 8.925 15.325 9.23929C14.725 12.8246 11.6107 15.4286 8 15.4286C4.97857 15.4286 2.28 13.5821 1.14286 10.8107V15.4286C1.14286 15.7429 0.887143 16 0.571429 16C0.255714 16 0 15.7429 0 15.4286V9.71428C0 9.4 0.255714 9.14286 0.571429 9.14286H6.28571C6.6 9.14286 6.85714 9.4 6.85714 9.71428C6.85714 10.0286 6.6 10.2857 6.28571 10.2857H2.125C3.06429 12.6829 5.37893 14.2857 7.96786 14.2857C11.0821 14.2857 13.6893 12.0821 14.1671 9.04714Z" fill="#3A89FF"/>
</svg>
