<svg width="10" height="16" viewBox="0 0 10 16" fill="none" xmlns="http://www.w3.org/2000/svg">
<path d="M5 0.875C5.49805 0.875 5.9375 1.31445 5.9375 1.8125V2.86719C5.9668 2.86719 6.02539 2.89648 6.05469 2.89648C6.37695 2.92578 7.28516 3.10156 7.66602 3.18945C8.16406 3.30664 8.48633 3.83398 8.36914 4.33203C8.22266 4.83008 7.72461 5.12305 7.22656 5.00586C6.93359 4.91797 6.11328 4.80078 5.79102 4.74219C4.85352 4.5957 4.0332 4.68359 3.47656 4.88867C2.94922 5.09375 2.71484 5.38672 2.65625 5.70898C2.59766 6.03125 2.65625 6.20703 2.71484 6.32422C2.77344 6.44141 2.86133 6.55859 3.0957 6.70508C3.56445 7.02734 4.29688 7.23242 5.23438 7.49609H5.32227C6.14258 7.73047 7.16797 8.02344 7.92969 8.52148C8.33984 8.78516 8.7207 9.16602 8.95508 9.66406C9.21875 10.1914 9.24805 10.7773 9.16016 11.3926C8.95508 12.5059 8.16406 13.2676 7.22656 13.6484C6.81641 13.8242 6.37695 13.9121 5.9375 13.9707V14.9375C5.9375 15.4648 5.49805 15.875 5 15.875C4.47266 15.875 4.0625 15.4648 4.0625 14.9375V13.9414C4.0332 13.9414 4.0332 13.9121 4.00391 13.9121C3.30078 13.8242 2.12891 13.502 1.33789 13.1504C0.839844 12.9453 0.634766 12.3887 0.839844 11.9199C1.04492 11.4512 1.60156 11.2168 2.07031 11.4512C2.68555 11.7148 3.71094 11.9785 4.29688 12.0664C5.23438 12.2129 5.99609 12.125 6.52344 11.9199C7.02148 11.7148 7.22656 11.4219 7.31445 11.0703C7.37305 10.748 7.31445 10.5723 7.25586 10.4551C7.19727 10.3379 7.10938 10.2207 6.875 10.0742C6.40625 9.75195 5.67383 9.54688 4.73633 9.2832H4.64844C3.82812 9.04883 2.80273 8.75586 2.04102 8.25781C1.63086 7.99414 1.25 7.61328 1.01562 7.11523C0.751953 6.58789 0.722656 6.00195 0.810547 5.35742C1.04492 4.24414 1.86523 3.51172 2.80273 3.13086C3.18359 2.98438 3.62305 2.89648 4.0625 2.83789V1.8125C4.0625 1.31445 4.47266 0.875 5 0.875Z" fill="#3DF2BC"/>
</svg>
