<svg width="42" height="42" viewBox="0 0 42 42" fill="none" xmlns="http://www.w3.org/2000/svg">
<g opacity="0.4" filter="url(#filter0_d_39_967)">
<path d="M21 13C16.5625 13 13 16.5938 13 21C13 25.4375 16.5625 29 21 29C25.4062 29 29 25.4375 29 21C29 16.5938 25.4062 13 21 13ZM15 21C15 19.7188 15.4062 18.5312 16.0938 17.5312L24.4688 25.9062C23.4688 26.5938 22.2812 27 21 27C17.6875 27 15 24.3125 15 21ZM25.875 24.5L17.5 16.125C18.5 15.4375 19.6875 15 21 15C24.2812 15 27 17.7188 27 21C27 22.3125 26.5625 23.5 25.875 24.5Z" fill="white"/>
</g>
<defs>
<filter id="filter0_d_39_967" x="0" y="0" width="42" height="42" filterUnits="userSpaceOnUse" color-interpolation-filters="sRGB">
<feFlood flood-opacity="0" result="BackgroundImageFix"/>
<feColorMatrix in="SourceAlpha" type="matrix" values="0 0 0 0 0 0 0 0 0 0 0 0 0 0 0 0 0 0 127 0" result="hardAlpha"/>
<feOffset/>
<feGaussianBlur stdDeviation="6.5"/>
<feColorMatrix type="matrix" values="0 0 0 0 1 0 0 0 0 0.639216 0 0 0 0 0 0 0 0 0.48 0"/>
<feBlend mode="normal" in2="BackgroundImageFix" result="effect1_dropShadow_39_967"/>
<feBlend mode="normal" in="SourceGraphic" in2="effect1_dropShadow_39_967" result="shape"/>
</filter>
</defs>
</svg>
