<svg width="28" height="29" viewBox="0 0 28 29" fill="none" xmlns="http://www.w3.org/2000/svg">
<g filter="url(#filter0_d_2557_696)">
<path d="M17.2812 11.5703L12.75 16.1406L10.6797 14.0703C10.4453 13.8359 10.0156 13.8359 9.78125 14.0703C9.54688 14.3047 9.54688 14.7344 9.78125 14.9688L12.2812 17.4688C12.3984 17.5859 12.5547 17.625 12.75 17.625C12.9062 17.625 13.0625 17.5859 13.1797 17.4688L18.1797 12.4688C18.4141 12.2344 18.4141 11.8047 18.1797 11.5703C17.9453 11.3359 17.5156 11.3359 17.2812 11.5703ZM14 4.5C8.45312 4.5 4 8.99219 4 14.5C4 20.0469 8.45312 24.5 14 24.5C19.5078 24.5 24 20.0469 24 14.5C24 8.99219 19.5078 4.5 14 4.5ZM14 23.25C9.15625 23.25 5.25 19.3438 5.25 14.5C5.25 9.69531 9.15625 5.75 14 5.75C18.8047 5.75 22.75 9.69531 22.75 14.5C22.75 19.3438 18.8047 23.25 14 23.25Z" fill="#3DF2BC"/>
</g>
<defs>
<filter id="filter0_d_2557_696" x="0" y="0.5" width="28" height="28" filterUnits="userSpaceOnUse" color-interpolation-filters="sRGB">
<feFlood flood-opacity="0" result="BackgroundImageFix"/>
<feColorMatrix in="SourceAlpha" type="matrix" values="0 0 0 0 0 0 0 0 0 0 0 0 0 0 0 0 0 0 127 0" result="hardAlpha"/>
<feOffset/>
<feGaussianBlur stdDeviation="2"/>
<feComposite in2="hardAlpha" operator="out"/>
<feColorMatrix type="matrix" values="0 0 0 0 0.239216 0 0 0 0 0.94902 0 0 0 0 0.749085 0 0 0 1 0"/>
<feBlend mode="normal" in2="BackgroundImageFix" result="effect1_dropShadow_2557_696"/>
<feBlend mode="normal" in="SourceGraphic" in2="effect1_dropShadow_2557_696" result="shape"/>
</filter>
</defs>
</svg>
