<svg width="20" height="21" viewBox="0 0 20 21" fill="none" xmlns="http://www.w3.org/2000/svg">
<path opacity="0.4" d="M10 0.5C4.45312 0.5 0 4.99219 0 10.5C0 16.0469 4.45312 20.5 10 20.5C15.5078 20.5 20 16.0469 20 10.5C20 4.99219 15.5078 0.5 10 0.5ZM13.125 12.3359C13.4766 12.7266 13.4766 13.3125 13.125 13.6641C12.7344 14.0547 12.1484 14.0547 11.7969 13.6641L10 11.8281L8.125 13.6641C7.77344 14.0547 7.1875 14.0547 6.83594 13.6641C6.44531 13.3125 6.44531 12.7266 6.83594 12.3359L8.67188 10.5L6.83594 8.66406C6.44531 8.27344 6.44531 7.6875 6.83594 7.33594C7.1875 6.94531 7.77344 6.94531 8.125 7.33594L10 9.21094L11.8359 7.375C12.1875 6.98438 12.7734 6.98438 13.125 7.375C13.5156 7.72656 13.5156 8.3125 13.125 8.70312L11.2891 10.5391L13.125 12.3359Z" fill="white"/>
</svg>
