<svg width="43" height="42" viewBox="0 0 43 42" fill="none" xmlns="http://www.w3.org/2000/svg">
<g opacity="0.4" filter="url(#filter0_d_1_2035)">
<path d="M22.5 26C22.2188 26 22 26.25 22 26.5V27C22 27.5625 21.5312 28 21 28H16C15.4375 28 15 27.5625 15 27V19C15 18.4688 15.4375 18 16 18H19.5C19.75 18 20 17.7812 20 17.5C20 17.25 19.75 17 19.5 17H15.9688C14.875 17 13.9688 17.9062 13.9688 19L14 27C14 28.125 14.875 29 16 29H21C22.0938 29 23 28.125 23 27V26.5C23 26.25 22.75 26 22.5 26ZM29.6875 15.7188L27.2812 13.3125C27.0938 13.125 26.8438 13 26.5625 13H23C21.875 13 21 13.9062 21 15V23C21 24.125 21.875 25 23 25H28C29.0938 25 30 24.125 30 23V16.4375C30 16.1562 29.875 15.9062 29.6875 15.7188ZM27 14.4375L28.5625 16H27V14.4375ZM29 23C29 23.5625 28.5312 24 28 24H23C22.4375 24 22 23.5625 22 23V15C22 14.4688 22.4375 14 23 14H26V16C26 16.5625 26.4375 17 27 17H29V23Z" fill="white"/>
</g>
<defs>
<filter id="filter0_d_1_2035" x="0.96875" y="0" width="42.0312" height="42" filterUnits="userSpaceOnUse" color-interpolation-filters="sRGB">
<feFlood flood-opacity="0" result="BackgroundImageFix"/>
<feColorMatrix in="SourceAlpha" type="matrix" values="0 0 0 0 0 0 0 0 0 0 0 0 0 0 0 0 0 0 127 0" result="hardAlpha"/>
<feOffset/>
<feGaussianBlur stdDeviation="6.5"/>
<feColorMatrix type="matrix" values="0 0 0 0 1 0 0 0 0 0.639216 0 0 0 0 0 0 0 0 0.48 0"/>
<feBlend mode="normal" in2="BackgroundImageFix" result="effect1_dropShadow_1_2035"/>
<feBlend mode="normal" in="SourceGraphic" in2="effect1_dropShadow_1_2035" result="shape"/>
</filter>
</defs>
</svg>
