<svg width="24" height="24" viewBox="0 0 24 24" fill="none" xmlns="http://www.w3.org/2000/svg">
<g opacity="0.7">
<path d="M13.2188 19.0625C12.8145 19.0625 12.5 19.4219 12.5 19.7812V20.5C12.5 21.3086 11.8262 21.9375 11.0625 21.9375H3.875C3.06641 21.9375 2.4375 21.3086 2.4375 20.5V9C2.4375 8.23633 3.06641 7.5625 3.875 7.5625H8.90625C9.26562 7.5625 9.625 7.24805 9.625 6.84375C9.625 6.48438 9.26562 6.125 8.90625 6.125H3.83008C2.25781 6.125 0.955078 7.42773 0.955078 9L1 20.5C1 22.1172 2.25781 23.375 3.875 23.375H11.0625C12.6348 23.375 13.9375 22.1172 13.9375 20.5V19.7812C13.9375 19.4219 13.5781 19.0625 13.2188 19.0625ZM23.5508 4.2832L20.0918 0.824219C19.8223 0.554688 19.4629 0.375 19.0586 0.375H13.9375C12.3203 0.375 11.0625 1.67773 11.0625 3.25V14.75C11.0625 16.3672 12.3203 17.625 13.9375 17.625H21.125C22.6973 17.625 24 16.3672 24 14.75V5.31641C24 4.91211 23.8203 4.55273 23.5508 4.2832ZM19.6875 2.44141L21.9336 4.6875H19.6875V2.44141ZM22.5625 14.75C22.5625 15.5586 21.8887 16.1875 21.125 16.1875H13.9375C13.1289 16.1875 12.5 15.5586 12.5 14.75V3.25C12.5 2.48633 13.1289 1.8125 13.9375 1.8125H18.25V4.6875C18.25 5.49609 18.8789 6.125 19.6875 6.125H22.5625V14.75Z" fill="white"/>
</g>
</svg>
