<svg width="12" height="20" viewBox="0 0 12 20" fill="none" xmlns="http://www.w3.org/2000/svg">
<path d="M6.875 2.53906C8.08594 2.65625 9.25781 2.89062 10.1172 3.125C10.4688 3.20312 10.6641 3.51562 10.5859 3.86719C10.5078 4.21875 10.1562 4.41406 9.84375 4.33594C8.55469 4.02344 6.64062 3.63281 4.96094 3.78906C4.14062 3.86719 3.4375 4.02344 2.92969 4.375C2.42188 4.72656 2.07031 5.19531 1.91406 5.9375C1.79688 6.52344 1.875 6.95312 2.03125 7.26562C2.1875 7.61719 2.46094 7.89062 2.89062 8.16406C3.75 8.71094 5 9.02344 6.40625 9.41406H6.44531C7.77344 9.76562 9.21875 10.1562 10.2344 10.8203C10.7812 11.1719 11.25 11.6016 11.5625 12.1875C11.8359 12.8125 11.9141 13.5156 11.7969 14.2969C11.5234 15.625 10.5859 16.5234 9.33594 17.0312C8.59375 17.3047 7.77344 17.4609 6.875 17.5V19.375C6.875 19.7266 6.5625 20 6.25 20C5.89844 20 5.625 19.7266 5.625 19.375V17.4609C5.35156 17.4219 5.11719 17.4219 4.88281 17.3828C3.82812 17.2266 2.30469 16.875 0.976562 16.2891C0.664062 16.1719 0.507812 15.7812 0.664062 15.4688C0.78125 15.1562 1.17188 15 1.48438 15.1562C2.65625 15.6641 4.10156 15.9766 5.03906 16.1328C6.5625 16.3672 7.89062 16.25 8.86719 15.8594C9.84375 15.4688 10.3906 14.8828 10.5469 14.0625C10.6641 13.4766 10.5859 13.0859 10.4297 12.7344C10.2734 12.4219 10 12.1094 9.57031 11.875C8.71094 11.3281 7.46094 10.9766 6.05469 10.625L6.01562 10.5859C4.6875 10.2344 3.24219 9.88281 2.22656 9.21875C1.67969 8.86719 1.21094 8.39844 0.898438 7.8125C0.625 7.22656 0.546875 6.52344 0.664062 5.70312C0.898438 4.60938 1.44531 3.86719 2.22656 3.32031C3.00781 2.85156 3.94531 2.61719 4.88281 2.53906C5.11719 2.5 5.35156 2.5 5.625 2.5V0.625C5.625 0.3125 5.89844 0 6.25 0C6.5625 0 6.875 0.3125 6.875 0.625V2.53906Z" fill="white"/>
</svg>
