<svg width="9" height="15" viewBox="0 0 9 15" fill="none" xmlns="http://www.w3.org/2000/svg">
<path d="M4.375 0.25C4.83984 0.25 5.25 0.660156 5.25 1.125V2.10938C5.27734 2.10938 5.33203 2.13672 5.35938 2.13672C5.66016 2.16406 6.50781 2.32812 6.86328 2.41016C7.32812 2.51953 7.62891 3.01172 7.51953 3.47656C7.38281 3.94141 6.91797 4.21484 6.45312 4.10547C6.17969 4.02344 5.41406 3.91406 5.11328 3.85938C4.23828 3.72266 3.47266 3.80469 2.95312 3.99609C2.46094 4.1875 2.24219 4.46094 2.1875 4.76172C2.13281 5.0625 2.1875 5.22656 2.24219 5.33594C2.29688 5.44531 2.37891 5.55469 2.59766 5.69141C3.03516 5.99219 3.71875 6.18359 4.59375 6.42969H4.67578C5.44141 6.64844 6.39844 6.92188 7.10938 7.38672C7.49219 7.63281 7.84766 7.98828 8.06641 8.45312C8.3125 8.94531 8.33984 9.49219 8.25781 10.0664C8.06641 11.1055 7.32812 11.8164 6.45312 12.1719C6.07031 12.3359 5.66016 12.418 5.25 12.4727V13.375C5.25 13.8672 4.83984 14.25 4.375 14.25C3.88281 14.25 3.5 13.8672 3.5 13.375V12.4453C3.47266 12.4453 3.47266 12.418 3.44531 12.418C2.78906 12.3359 1.69531 12.0352 0.957031 11.707C0.492188 11.5156 0.300781 10.9961 0.492188 10.5586C0.683594 10.1211 1.20312 9.90234 1.64062 10.1211C2.21484 10.3672 3.17188 10.6133 3.71875 10.6953C4.59375 10.832 5.30469 10.75 5.79688 10.5586C6.26172 10.3672 6.45312 10.0938 6.53516 9.76562C6.58984 9.46484 6.53516 9.30078 6.48047 9.19141C6.42578 9.08203 6.34375 8.97266 6.125 8.83594C5.6875 8.53516 5.00391 8.34375 4.12891 8.09766H4.04688C3.28125 7.87891 2.32422 7.60547 1.61328 7.14062C1.23047 6.89453 0.875 6.53906 0.65625 6.07422C0.410156 5.58203 0.382812 5.03516 0.464844 4.43359C0.683594 3.39453 1.44922 2.71094 2.32422 2.35547C2.67969 2.21875 3.08984 2.13672 3.5 2.08203V1.125C3.5 0.660156 3.88281 0.25 4.375 0.25Z" fill="#3DF2BC"/>
</svg>
