<svg width="16" height="17" viewBox="0 0 16 17" fill="none" xmlns="http://www.w3.org/2000/svg">
<path opacity="0.7" d="M15.7627 10.879C15.7627 10.7227 15.6689 10.5352 15.5127 10.4415L14.0439 9.62897C14.1064 9.25397 14.1689 8.87897 14.1689 8.50397C14.1689 8.16022 14.1064 7.78522 14.0439 7.41022L15.5127 6.59772C15.6689 6.50397 15.7627 6.31647 15.7627 6.12897C15.7627 5.69147 14.4502 3.03522 13.7627 3.03522C13.6689 3.03522 13.5752 3.06647 13.5127 3.12897L12.0439 3.97272C11.4814 3.47272 10.8564 3.12897 10.1689 2.87897V1.19147C10.1689 0.941467 9.98145 0.722717 9.7627 0.691467C9.23145 0.566467 8.7002 0.503967 8.16895 0.503967C7.60645 0.503967 7.0752 0.566467 6.54395 0.691467C6.3252 0.753967 6.16895 0.941467 6.16895 1.19147V2.87897C5.4502 3.12897 4.8252 3.47272 4.2627 3.97272L2.79395 3.12897C2.73145 3.06647 2.6377 3.03522 2.54395 3.03522C1.91895 3.03522 0.543945 5.59772 0.543945 6.12897C0.543945 6.31647 0.637695 6.50397 0.793945 6.59772L2.2627 7.41022C2.2002 7.78522 2.16895 8.12897 2.16895 8.50397C2.16895 8.87897 2.2002 9.25397 2.2627 9.62897L0.793945 10.4415C0.637695 10.5352 0.543945 10.7227 0.543945 10.879C0.543945 11.3477 1.85645 14.004 2.54395 14.004C2.6377 14.004 2.73145 13.9727 2.79395 13.9102L4.2627 13.0665C4.8252 13.5352 5.4502 13.9102 6.16895 14.1602V15.8477C6.16895 16.0977 6.3252 16.2852 6.54395 16.3477C7.0752 16.4415 7.60645 16.504 8.1377 16.504C8.6377 16.504 9.2002 16.4727 9.73145 16.3477C9.98145 16.2852 10.1689 16.0977 10.1689 15.8477V14.1602C10.8564 13.9102 11.4814 13.5352 12.0439 13.0665L13.5127 13.9102C13.5752 13.9727 13.6689 14.004 13.7627 14.004C14.3877 13.9727 15.7627 11.4415 15.7627 10.879ZM8.16895 11.004C6.7627 11.004 5.66895 9.91022 5.66895 8.50397C5.66895 7.12897 6.7627 6.00397 8.16895 6.00397C9.54395 6.00397 10.6689 7.12897 10.6689 8.50397C10.6689 9.91022 9.54395 11.004 8.16895 11.004Z" fill="white"/>
</svg>
