<svg width="15" height="21" viewBox="0 0 15 21" fill="none" xmlns="http://www.w3.org/2000/svg">
<path opacity="0.8" d="M4.375 5.45557H10.625C10.9375 5.45557 11.25 5.18213 11.25 4.83057C11.25 4.51807 10.9375 4.20557 10.625 4.20557H9.64844C9.84375 3.854 10 3.42432 10 2.95557C10 1.58838 8.86719 0.455566 7.5 0.455566C6.09375 0.455566 5 1.58838 5 2.95557C5 3.42432 5.11719 3.854 5.3125 4.20557H4.375C4.02344 4.20557 3.75 4.51807 3.75 4.83057C3.75 5.18213 4.02344 5.45557 4.375 5.45557ZM7.5 1.70557C8.16406 1.70557 8.75 2.2915 8.75 2.95557C8.75 3.65869 8.16406 4.20557 7.5 4.20557C6.79688 4.20557 6.25 3.65869 6.25 2.95557C6.25 2.2915 6.79688 1.70557 7.5 1.70557ZM12.5 2.95557C12.1484 2.95557 11.875 3.26807 11.875 3.58057C11.875 3.93213 12.1484 4.20557 12.5 4.20557C13.1641 4.20557 13.75 4.7915 13.75 5.45557V17.9556C13.75 18.6587 13.1641 19.2056 12.5 19.2056H2.5C1.79688 19.2056 1.25 18.6587 1.25 17.9556V5.45557C1.25 4.7915 1.79688 4.20557 2.5 4.20557C2.8125 4.20557 3.125 3.93213 3.125 3.58057C3.125 3.26807 2.8125 2.95557 2.5 2.95557C1.09375 2.95557 0 4.08838 0 5.45557V17.9556C0 19.3618 1.09375 20.4556 2.5 20.4556H12.5C13.8672 20.4556 15 19.3618 15 17.9556V5.45557C15 4.08838 13.8672 2.95557 12.5 2.95557Z" fill="white"/>
</svg>
