<svg width="14" height="14" viewBox="0 0 14 14" fill="none" xmlns="http://www.w3.org/2000/svg">
<path d="M13.1875 11.6484C13.5391 12.0391 13.5391 12.625 13.1875 12.9766C12.7969 13.3672 12.2109 13.3672 11.8594 12.9766L7.25 8.32812L2.60156 12.9766C2.21094 13.3672 1.625 13.3672 1.27344 12.9766C0.882812 12.625 0.882812 12.0391 1.27344 11.6484L5.92188 7L1.27344 2.35156C0.882812 1.96094 0.882812 1.375 1.27344 1.02344C1.625 0.632812 2.21094 0.632812 2.5625 1.02344L7.25 5.71094L11.8984 1.0625C12.25 0.671875 12.8359 0.671875 13.1875 1.0625C13.5781 1.41406 13.5781 2 13.1875 2.39062L8.53906 7L13.1875 11.6484Z" fill="#DED4EF"/>
</svg>
