<svg width="46" height="41" viewBox="0 0 46 41" fill="none" xmlns="http://www.w3.org/2000/svg">
<g opacity="0.4" filter="url(#filter0_d_45_3745)">
<path d="M13.9375 17.0625H26.75C26.7891 17.0625 26.8281 17.0625 26.8672 17.0625C27.2578 18.3125 28.4297 19.25 29.875 19.25C31.5938 19.25 33 17.8828 33 16.125C33 14.4063 31.5938 13 29.875 13C28.4297 13 27.2578 13.9375 26.8672 15.2266C26.8281 15.2266 26.7891 15.1875 26.75 15.1875L13.9375 15.1875C13.3906 15.1875 13 15.6172 13 16.125C13 16.6719 13.3906 17.0625 13.9375 17.0625ZM29.875 14.875C30.5391 14.875 31.125 15.4609 31.125 16.125C31.125 16.8281 30.5391 17.375 29.875 17.375C29.1719 17.375 28.625 16.8281 28.625 16.125C28.625 15.4609 29.1719 14.875 29.875 14.875ZM32.0625 23.9375L20.4219 23.9375C20.4219 23.9375 20.8516 23.9375 19.25 23.9375C19.2109 23.9375 19.1328 23.9766 19.0937 23.9766C18.7031 22.7266 17.5312 21.75 16.125 21.75C14.3672 21.75 13 23.1562 13 24.875C13 26.6328 14.3672 28 16.125 28C17.5312 28 18.7031 27.0625 19.0937 25.8125C19.1328 25.8125 19.2109 25.8125 19.25 25.8125C20.8516 25.8125 20.4219 25.8125 20.4219 25.8125L32.0625 25.8125C32.5703 25.8125 33 25.4219 33 24.875C33 24.3672 32.5703 23.9375 32.0625 23.9375ZM16.125 26.125C15.4219 26.125 14.875 25.5781 14.875 24.875C14.875 24.2109 15.4219 23.625 16.125 23.625C16.7891 23.625 17.375 24.2109 17.375 24.875C17.375 25.5781 16.7891 26.125 16.125 26.125Z" fill="white"/>
</g>
<defs>
<filter id="filter0_d_45_3745" x="0" y="0" width="46" height="41" filterUnits="userSpaceOnUse" color-interpolation-filters="sRGB">
<feFlood flood-opacity="0" result="BackgroundImageFix"/>
<feColorMatrix in="SourceAlpha" type="matrix" values="0 0 0 0 0 0 0 0 0 0 0 0 0 0 0 0 0 0 127 0" result="hardAlpha"/>
<feOffset/>
<feGaussianBlur stdDeviation="6.5"/>
<feColorMatrix type="matrix" values="0 0 0 0 1 0 0 0 0 0.639216 0 0 0 0 0 0 0 0 0.48 0"/>
<feBlend mode="normal" in2="BackgroundImageFix" result="effect1_dropShadow_45_3745"/>
<feBlend mode="normal" in="SourceGraphic" in2="effect1_dropShadow_45_3745" result="shape"/>
</filter>
</defs>
</svg>
