<svg width="24" height="24" viewBox="0 0 24 24" fill="none" xmlns="http://www.w3.org/2000/svg">
<g opacity="0.7">
<path d="M16.375 2.5C13.25 2.5 10.75 5.03906 10.75 8.125C10.75 9.375 11.1406 10.4688 11.7656 11.4062L4.77344 18.4375C4.38281 18.7891 4.38281 19.375 4.77344 19.7266L7.27344 22.2266C7.42969 22.4219 7.66406 22.5 7.9375 22.5C8.17188 22.5 8.40625 22.4219 8.5625 22.2266C8.95312 21.875 8.95312 21.2891 8.5625 20.9375L6.72656 19.0625L7.9375 17.8906L9.77344 19.7266C9.92969 19.9219 10.1641 20 10.4375 20C10.6719 20 10.9062 19.9219 11.0625 19.7266C11.4531 19.375 11.4531 18.7891 11.0625 18.4375L9.22656 16.5625L13.0938 12.7344C14.0312 13.3594 15.125 13.75 16.375 13.75C19.4609 13.75 22 11.25 22 8.125C22 5.03906 19.4609 2.5 16.375 2.5ZM16.375 11.875C14.3047 11.875 12.625 10.1953 12.625 8.125C12.625 6.09375 14.3047 4.375 16.375 4.375C18.4062 4.375 20.125 6.09375 20.125 8.125C20.125 10.1953 18.4062 11.875 16.375 11.875Z" fill="white"/>
</g>
</svg>
