<svg width="16" height="18" viewBox="0 0 16 18" fill="none" xmlns="http://www.w3.org/2000/svg">
<path opacity="0.7" d="M15.0605 10.8238L8.49805 17.6988C8.30273 17.8941 8.06836 17.9722 7.83398 17.9722C7.56055 17.9722 7.32617 17.8941 7.13086 17.6988L0.568359 10.8238C0.216797 10.4332 0.216797 9.84723 0.607422 9.49567C0.958984 9.1441 1.58398 9.1441 1.93555 9.53473L6.89648 14.73V1.44879C6.89648 0.901917 7.28711 0.511292 7.79492 0.511292C8.26367 0.511292 8.77148 0.901917 8.77148 1.44879V14.73L13.6934 9.53473C14.0449 9.1441 14.6699 9.1441 15.0215 9.49567C15.4121 9.84723 15.4121 10.4332 15.0605 10.8238Z" fill="black" fill-opacity="0.3"/>
</svg>
