<svg width="15" height="16" viewBox="0 0 15 16" fill="none" xmlns="http://www.w3.org/2000/svg">
<path opacity="0.5" d="M14.5312 14.9375H11.5137C13.0371 13.9414 14.0625 12.2129 14.0625 10.25C14.0625 7.17383 11.5137 4.625 8.4375 4.625V2.75C8.4375 2.25195 7.99805 1.8125 7.5 1.8125V1.34375C7.5 1.10938 7.26562 0.875 7.03125 0.875H5.15625C4.89258 0.875 4.6875 1.10938 4.6875 1.34375V1.8125C4.16016 1.8125 3.75 2.25195 3.75 2.75V9.3125C3.75 9.83984 4.16016 10.25 4.6875 10.25H7.5C7.99805 10.25 8.4375 9.83984 8.4375 9.3125V5.5625C11.0156 5.5625 13.125 7.67188 13.125 10.25C13.125 12.8574 11.0156 14.9375 8.4375 14.9375H0.46875C0.205078 14.9375 0 15.1719 0 15.4062C0 15.6699 0.205078 15.875 0.46875 15.875H14.5312C14.7656 15.875 15 15.6699 15 15.4062C15 15.1719 14.7656 14.9375 14.5312 14.9375ZM7.5 9.3125H4.6875V2.75C5.18555 2.75 5.625 2.33984 5.625 1.8125H6.5625C6.5625 2.33984 6.97266 2.75 7.5 2.75V9.3125ZM7.03125 12.125C7.26562 12.125 7.5 11.9199 7.5 11.6562C7.5 11.4219 7.26562 11.1875 7.03125 11.1875H5.15625C4.89258 11.1875 4.6875 11.4219 4.6875 11.6562C4.6875 11.9199 4.89258 12.125 5.15625 12.125H7.03125ZM3.28125 14H8.90625C9.14062 14 9.375 13.7949 9.375 13.5312C9.375 13.2969 9.14062 13.0625 8.90625 13.0625H3.28125C3.01758 13.0625 2.8125 13.2969 2.8125 13.5312C2.8125 13.7949 3.01758 14 3.28125 14Z" fill="white"/>
</svg>
