<svg width="18" height="20" viewBox="0 0 18 20" fill="none" xmlns="http://www.w3.org/2000/svg">
<path d="M18 12.6094V4.25C18 2.88281 16.8672 1.75 15.5 1.75H3C1.59375 1.75 0.5 2.88281 0.5 4.25V16.75C0.5 18.1562 1.59375 19.25 3 19.25H11.3203C11.9844 19.25 12.6094 19.0156 13.0781 18.5469L17.2578 14.3672C17.7266 13.8984 18 13.2734 18 12.6094ZM12.2188 17.6484C12.0625 17.8047 11.9062 17.8828 11.75 17.9219V13.625C11.75 13.3125 12.0234 13 12.375 13H16.6328C16.5938 13.1953 16.5156 13.3516 16.3594 13.5078L12.2188 17.6484ZM16.75 11.75H12.375C11.3203 11.75 10.5 12.6094 10.5 13.625V18H3C2.29688 18 1.75 17.4531 1.75 16.75V4.25C1.75 3.58594 2.29688 3 3 3H15.5C16.1641 3 16.75 3.58594 16.75 4.25V11.75Z" fill="white"/>
</svg>
