<svg width="18" height="21" viewBox="0 0 18 21" fill="none" xmlns="http://www.w3.org/2000/svg">
<path opacity="0.8" d="M8.75 10.4556C11.4844 10.4556 13.75 8.229 13.75 5.45557C13.75 2.72119 11.4844 0.455566 8.75 0.455566C5.97656 0.455566 3.75 2.72119 3.75 5.45557C3.75 8.229 5.97656 10.4556 8.75 10.4556ZM8.75 1.70557C10.7812 1.70557 12.5 3.42432 12.5 5.45557C12.5 7.52588 10.7812 9.20557 8.75 9.20557C6.67969 9.20557 5 7.52588 5 5.45557C5 3.42432 6.67969 1.70557 8.75 1.70557ZM10.7031 12.3306H6.75781C3.00781 12.3306 0 15.3774 0 19.1274C0 19.8696 0.585938 20.4556 1.32812 20.4556H16.1328C16.875 20.4556 17.5 19.8696 17.5 19.1274C17.5 15.3774 14.4531 12.3306 10.7031 12.3306ZM16.1328 19.2056H1.32812C1.28906 19.2056 1.25 19.1665 1.25 19.1274C1.25 16.0806 3.71094 13.5806 6.75781 13.5806H10.7031C13.75 13.5806 16.25 16.0806 16.25 19.1274C16.25 19.1665 16.1719 19.2056 16.1328 19.2056Z" fill="white"/>
</svg>
