<svg width="17" height="17" viewBox="0 0 17 17" fill="none" xmlns="http://www.w3.org/2000/svg">
<path d="M16.375 8.5C16.375 8.85156 16.0625 9.125 15.75 9.125H8.875V16C8.875 16.3516 8.5625 16.6641 8.25 16.6641C7.89844 16.6641 7.625 16.3516 7.625 16V9.125H0.75C0.398438 9.125 0.125 8.85156 0.125 8.53906C0.125 8.1875 0.398438 7.875 0.75 7.875H7.625V1C7.625 0.6875 7.89844 0.414062 8.25 0.414062C8.5625 0.414062 8.875 0.6875 8.875 1V7.875H15.75C16.0625 7.875 16.375 8.1875 16.375 8.5Z" fill="white"/>
</svg>
