<svg width="24" height="24" viewBox="0 0 24 24" fill="none" xmlns="http://www.w3.org/2000/svg">
<g opacity="0.7">
<path d="M15.0859 9.33594L10.75 13.7109L8.875 11.8359C8.48438 11.4844 7.89844 11.4844 7.54688 11.8359C7.15625 12.2266 7.15625 12.8125 7.54688 13.1641L10.0469 15.6641C10.2422 15.8594 10.4766 15.9375 10.75 15.9375C10.9844 15.9375 11.2188 15.8594 11.375 15.6641L16.375 10.6641C16.7656 10.3125 16.7656 9.72656 16.375 9.375C16.0234 8.98438 15.4375 8.98438 15.0859 9.33594ZM12 2.5C6.45312 2.5 2 6.99219 2 12.5C2 18.0469 6.45312 22.5 12 22.5C17.5078 22.5 22 18.0469 22 12.5C22 6.99219 17.5078 2.5 12 2.5ZM12 20.625C7.50781 20.625 3.875 16.9922 3.875 12.5C3.875 8.04688 7.50781 4.375 12 4.375C16.4531 4.375 20.125 8.04688 20.125 12.5C20.125 16.9922 16.4531 20.625 12 20.625Z" fill="black"/>
</g>
</svg>
