<svg width="24" height="25" viewBox="0 0 24 25" fill="none" xmlns="http://www.w3.org/2000/svg">
<path d="M21.8047 22.3564L16.2578 16.8486C17.5078 15.4033 18.2109 13.5674 18.2109 11.5361C18.2109 7.08301 14.5391 3.41113 10.0859 3.41113C5.59375 3.41113 2 7.08301 2 11.5361C2 16.0283 5.63281 19.6611 10.0859 19.6611C12.0781 19.6611 13.9141 18.958 15.3594 17.708L20.8672 23.2549C21.0234 23.3721 21.1797 23.4111 21.375 23.4111C21.5312 23.4111 21.6875 23.3721 21.8047 23.2549C22.0391 23.0205 22.0391 22.5908 21.8047 22.3564ZM10.125 18.4111C6.29688 18.4111 3.25 15.3252 3.25 11.5361C3.25 7.74707 6.29688 4.66113 10.125 4.66113C13.9141 4.66113 17 7.74707 17 11.5361C17 15.3643 13.9141 18.4111 10.125 18.4111Z" fill="white"/>
</svg>
