<svg width="40" height="43" viewBox="0 0 40 43" fill="none" xmlns="http://www.w3.org/2000/svg">
<g opacity="0.4" filter="url(#filter0_d_39_964)">
<path d="M25.6562 22.7812L17.6875 29.75C17.4688 29.9375 17.2188 30 17 30C16.7812 30 16.5625 29.9375 16.4062 29.8125C16.0312 29.5625 15.875 29.0625 16.0625 28.625L18.4688 23H15C14.5625 23 14.1875 22.75 14.0625 22.375C13.9062 21.9688 14 21.5312 14.3125 21.25L22.3125 14.2812C22.6562 13.9688 23.1562 13.9688 23.5312 14.25C23.9375 14.5 24.0625 15 23.875 15.4375L21.4688 21.0312H24.9688C25.375 21.0312 25.75 21.3125 25.9062 21.6875C26.0625 22.0625 25.9688 22.5 25.6562 22.7812Z" fill="white"/>
</g>
<defs>
<filter id="filter0_d_39_964" x="0.90625" y="0.96875" width="38.1562" height="42.0312" filterUnits="userSpaceOnUse" color-interpolation-filters="sRGB">
<feFlood flood-opacity="0" result="BackgroundImageFix"/>
<feColorMatrix in="SourceAlpha" type="matrix" values="0 0 0 0 0 0 0 0 0 0 0 0 0 0 0 0 0 0 127 0" result="hardAlpha"/>
<feOffset/>
<feGaussianBlur stdDeviation="6.5"/>
<feColorMatrix type="matrix" values="0 0 0 0 1 0 0 0 0 0.639216 0 0 0 0 0 0 0 0 0.48 0"/>
<feBlend mode="normal" in2="BackgroundImageFix" result="effect1_dropShadow_39_964"/>
<feBlend mode="normal" in="SourceGraphic" in2="effect1_dropShadow_39_964" result="shape"/>
</filter>
</defs>
</svg>
