<svg width="18" height="19" viewBox="0 0 18 19" fill="none" xmlns="http://www.w3.org/2000/svg">
<path fill-rule="evenodd" clip-rule="evenodd" d="M16.7142 0.644067C16.7142 0.288894 17.0035 0.0012207 17.3571 0.0012207C17.7107 0.0012207 17.9999 0.288894 17.9999 0.644067V7.07252C17.9999 7.42609 17.7107 7.71537 17.3571 7.71537H10.9286C10.5751 7.71537 10.2858 7.42609 10.2858 7.07252C10.2858 6.71896 10.5751 6.42968 10.9286 6.42968H15.5732C14.5165 3.73294 11.9126 1.92976 9.00009 1.92976C5.53274 1.92976 2.59936 4.40873 2.02682 7.82224C1.97379 8.13599 1.70146 8.35822 1.39322 8.35822C1.35827 8.35822 1.32252 8.3542 1.28677 8.35018L1.28675 8.35018C0.936394 8.28991 0.700148 7.96046 0.759611 7.60689C1.4346 3.57343 4.90195 0.644067 9.00009 0.644067C12.3991 0.644067 15.4366 2.72207 16.7142 5.83906V0.644067ZM15.938 10.1798C15.9962 9.82964 16.3258 9.58986 16.678 9.65262C17.0637 9.71288 17.3008 10.0423 17.2405 10.3959C16.5655 14.4294 13.062 17.3587 9.00004 17.3587C5.60099 17.3587 2.56515 15.2815 1.28589 12.1637V17.3587C1.28589 17.7123 0.998216 18.0016 0.643044 18.0016C0.287872 18.0016 0.000198364 17.7123 0.000198364 17.3587V10.9303C0.000198364 10.5767 0.287872 10.2874 0.643044 10.2874H7.0715C7.42507 10.2874 7.71435 10.5767 7.71435 10.9303C7.71435 11.2838 7.42507 11.5731 7.0715 11.5731H2.39078C3.44746 14.2699 6.05139 16.073 8.96388 16.073C12.4674 16.073 15.4004 13.5941 15.938 10.1798Z" fill="#A0A4FF"/>
</svg>
