<svg width="14" height="13" viewBox="0 0 14 13" fill="none" xmlns="http://www.w3.org/2000/svg">
<path opacity="0.4" d="M0 1.5C0 0.96875 0.4375 0.5 1 0.5H13C13.5312 0.5 14 0.96875 14 1.5C14 2.0625 13.5312 2.5 13 2.5H1C0.4375 2.5 0 2.0625 0 1.5ZM2 6.5C2 5.96875 2.4375 5.5 3 5.5H11C11.5312 5.5 12 5.96875 12 6.5C12 7.0625 11.5312 7.5 11 7.5H3C2.4375 7.5 2 7.0625 2 6.5ZM8 12.5H6C5.4375 12.5 5 12.0625 5 11.5C5 10.9688 5.4375 10.5 6 10.5H8C8.53125 10.5 9 10.9688 9 11.5C9 12.0625 8.53125 12.5 8 12.5Z" fill="#E0D4F1"/>
</svg>
