<svg width="22" height="19" viewBox="0 0 22 19" fill="none" xmlns="http://www.w3.org/2000/svg">
<path d="M21.2656 9.83521L13.4844 18.0852C13.3438 18.2727 13.1094 18.3196 12.9219 18.3196C12.7344 18.3196 12.5469 18.2727 12.4062 18.1321C12.0781 17.8508 12.0781 17.3821 12.3594 17.1008L18.9219 10.0696H1.25C0.828125 10.0696 0.5 9.74146 0.5 9.36646C0.5 8.99146 0.828125 8.56958 1.25 8.56958H18.9219L12.3594 1.58521C12.0781 1.30396 12.0781 0.835205 12.4062 0.553955C12.7344 0.272705 13.2031 0.272705 13.4844 0.60083L21.2656 8.85083C21.5469 9.13208 21.5469 9.55396 21.2656 9.83521Z" fill="#FCF6FF"/>
</svg>
