<svg width="24" height="25" viewBox="0 0 24 25" fill="none" xmlns="http://www.w3.org/2000/svg">
<path d="M20.125 4.70557C20.4375 4.70557 20.75 5.01807 20.75 5.33057C20.75 5.68213 20.4375 5.95557 20.125 5.95557H5.125C4.07031 5.95557 3.25 6.81494 3.25 7.83057V19.0806C3.25 20.1353 4.07031 20.9556 5.125 20.9556H18.875C19.8906 20.9556 20.75 20.1353 20.75 19.0806V10.3306C20.75 9.31494 19.8906 8.45557 18.875 8.45557H6.375C6.02344 8.45557 5.75 8.18213 5.75 7.83057C5.75 7.51807 6.02344 7.20557 6.375 7.20557H18.875C20.5938 7.20557 22 8.61182 22 10.3306V19.0806C22 20.8384 20.5938 22.2056 18.875 22.2056H5.125C3.36719 22.2056 2 20.8384 2 19.0806V7.83057C2 6.11182 3.36719 4.70557 5.125 4.70557H20.125ZM16.0625 14.7056C16.0625 14.1978 16.4531 13.7681 17 13.7681C17.5078 13.7681 17.9375 14.1978 17.9375 14.7056C17.9375 15.2524 17.5078 15.6431 17 15.6431C16.4531 15.6431 16.0625 15.2524 16.0625 14.7056Z" fill="white"/>
</svg>
